<svg xmlns="http://www.w3.org/2000/svg" viewBox="0 0 40.34 151.1"><defs><style>.cls-1{fill:#231815;}</style></defs><g id="レイヤー_2" data-name="レイヤー 2"><g id="レイヤー_1-2" data-name="レイヤー 1"><path class="cls-1" d="M35.53,6.08A2.43,2.43,0,0,0,35.39,5a4.13,4.13,0,0,0-3.88-2.48H31A7.5,7.5,0,0,0,25.81,0h0a2.62,2.62,0,0,0-2.61,1.44,3,3,0,0,0-.13,2c-1.77,1.45-1.84,2.82-1.5,3.78a4.06,4.06,0,0,0,1.11,1.64,3,3,0,0,0-.19,1.1,3.26,3.26,0,0,0,1.75,2.66A2.81,2.81,0,0,0,24,14.68a3.56,3.56,0,0,0,1,1.65,2,2,0,0,0-.26,1.52c.18.65.85,1.49,3.05,1.76h.05a.4.4,0,0,0,0-.79c-.3,0-.57-.09-.82-.14a.47.47,0,0,0,.12-.09c.38-.38.75-.76,1.09-1.13l.32,0,.29,0,.05-.3c0-.15,0-.29,0-.43s.31-.36.45-.54a1.37,1.37,0,0,0,1.48-.28,2.28,2.28,0,0,0,.59-1.55A3.7,3.7,0,0,0,34,13.75c.58-.42,1.24-1.34.49-3.21a3.16,3.16,0,0,0,1.76-2.09A2.89,2.89,0,0,0,35.53,6.08Zm-2.18-.6a3.93,3.93,0,0,1,.74.37,4,4,0,0,1,.59.46,2.47,2.47,0,0,1-.82,1.14,1.91,1.91,0,0,1-.47.26,3,3,0,0,0,0-2.23Zm1.3-.26a.14.14,0,0,0,0,.06l-.15-.1a5,5,0,0,0-1.68-.67,6.45,6.45,0,0,0-1.12-1.24A3.36,3.36,0,0,1,34.65,5.22ZM33.4,10.14l-.19.07c-.19-.14-.37-.26-.52-.35.05-.23.1-.45.13-.66A9.27,9.27,0,0,1,33.4,10.14ZM31.75,5.2a6.73,6.73,0,0,1,.42,2,5.81,5.81,0,0,0-2.59-1.36A4.67,4.67,0,0,1,31.75,5.2ZM28.1,6.94c.17-.16.36-.32.56-.48a5,5,0,0,1,3.1,1.42A11.31,11.31,0,0,1,28.1,6.94Zm3.21,1.69a4.88,4.88,0,0,1-.82.29,3.88,3.88,0,0,1-3.44-.7,4.65,4.65,0,0,1,.48-.67A12.78,12.78,0,0,0,31.31,8.63Zm.73.52c0,.1,0,.21-.07.31l-.31-.12A3.36,3.36,0,0,0,32,9.15ZM30.82,3.57l.08.07a6.24,6.24,0,0,1,.5.79,5.55,5.55,0,0,0-2.87,1.13l-.12.09a6.91,6.91,0,0,0-2.21.28l-.1-.07a3.29,3.29,0,0,1,.15-.6c.58-1.63,2.47-1.94,4.1-2Zm-3.38,9.07c0,.12,0,.24,0,.37l-.43-.1a10.45,10.45,0,0,1-1.56-.56,3,3,0,0,1,1-.54l.17-.06A5.15,5.15,0,0,0,27.44,12.64Zm0-1.1.26,0a2,2,0,0,0-.08.22ZM26.5,7.62a2.5,2.5,0,0,1-.36-.8,7,7,0,0,0,.66.37C26.69,7.34,26.59,7.48,26.5,7.62Zm-.64,2.21a9.75,9.75,0,0,1-2.2-1.21A4.49,4.49,0,0,1,25.4,7.11a3.23,3.23,0,0,0,.7,1.28A3.35,3.35,0,0,0,25.86,9.83ZM25.4,5.34A5.31,5.31,0,0,1,24,3.68,11.67,11.67,0,0,1,25.1,3a4.91,4.91,0,0,1,3.72-.38A3.86,3.86,0,0,0,25.5,5C25.46,5.11,25.43,5.22,25.4,5.34ZM23.91,1.75a1.93,1.93,0,0,1,1.88-1h0A6.26,6.26,0,0,1,29,1.85a5.67,5.67,0,0,0-4.3.46,10.12,10.12,0,0,0-1,.58A2.18,2.18,0,0,1,23.91,1.75ZM22.3,6.94a2.57,2.57,0,0,1,1.07-2.76,6.38,6.38,0,0,0,1.87,2l0,0v0a5.48,5.48,0,0,0-2.22,1.81A3.07,3.07,0,0,1,22.3,6.94Zm1,3a1.88,1.88,0,0,1,.06-.53A10.53,10.53,0,0,0,26,10.76c0,.1.08.2.13.3h0A3.83,3.83,0,0,0,24.7,12,2.58,2.58,0,0,1,23.26,9.91Zm1.48,4.58A2.11,2.11,0,0,1,24.91,13a11.56,11.56,0,0,0,1.87.7,7.11,7.11,0,0,0,.72.14,3.6,3.6,0,0,0,.31.85,2.54,2.54,0,0,0-1.93.61,3.63,3.63,0,0,0-.47.42A2.8,2.8,0,0,1,24.74,14.49ZM26.57,18a.38.38,0,0,0-.05.5c-.6-.22-1-.52-1.07-.89a1.17,1.17,0,0,1,.12-.81,4.09,4.09,0,0,0,1.6.59Zm1.28-1.35A3.35,3.35,0,0,1,26,16.2l.33-.29a1.53,1.53,0,0,1,1.46-.4c.2.11.31.41.32.84Zm.35-6.17a13,13,0,0,1-1.52-.39A2.37,2.37,0,0,1,26.73,9a4.58,4.58,0,0,0,2.13.84A3.65,3.65,0,0,0,28.2,10.51Zm.33,1a2.31,2.31,0,0,1,1.69,1.09,2.92,2.92,0,0,1,.23.47l-.57,0a6.65,6.65,0,0,1-1.59-.82A3.52,3.52,0,0,1,28.53,11.52Zm.63,3.56a2.32,2.32,0,0,1-.8-1.18c.44,0,.92,0,1.41,0L30,14C29.7,14.34,29.44,14.71,29.16,15.08Zm1.14.18a.54.54,0,0,1-.4.16c.27-.36.52-.71.74-1.06A1.4,1.4,0,0,1,30.3,15.26Zm.64-3a.56.56,0,0,1-.05-.08,3.06,3.06,0,0,0-.59-.69,8.64,8.64,0,0,0,1-.06C31.21,11.72,31.08,12,30.94,12.27Zm-1.82-1.63a2.13,2.13,0,0,1,2.65-.4l-.12.36h0A9.06,9.06,0,0,1,29.12,10.64Zm4.48,1.43c-.18.42-1.05.71-2.12.89a15.84,15.84,0,0,0,.76-1.66c.29-.06.55-.13.8-.2C33.5,11.5,33.7,11.84,33.6,12.07Zm1.83-3.78a2.38,2.38,0,0,1-1.31,1.52,11.25,11.25,0,0,0-.78-1.27,2.54,2.54,0,0,0,1-.48,3.43,3.43,0,0,0,.87-1A1.86,1.86,0,0,1,35.43,8.29Z"/><path class="cls-1" d="M28.47,32.18a9.74,9.74,0,1,1-9.74-9.74A9.74,9.74,0,0,1,28.47,32.18Z"/><path class="cls-1" d="M11.56,81.41A5.77,5.77,0,0,1,9.33,70.34l.1,0a4.72,4.72,0,0,0,3.78-2.23L23.67,50a3.79,3.79,0,0,0-6.85-3.25L5.29,63.39,4,62.27l9.91-14.14C6.6,50-.08,56.17,0,67c0,4.79,2.48,6.77,4.93,6.68l2,72.51a4.94,4.94,0,0,0,9.88,0l2-44.58,2,44.58a4.94,4.94,0,0,0,9.88,0l1.56-63.9H30.89Z"/><path class="cls-1" d="M26,48.13a5.74,5.74,0,0,1-.53,2.71L15,68.91a4.86,4.86,0,0,1-.4.7l15.31-.55a1.16,1.16,0,0,0,.78-1.26v-5L31.93,64v7.06a5,5,0,0,0-.78-.07l-19.54.86a3.79,3.79,0,1,0,0,7.58l19.54.86c4.46.24,9.19-2.34,9.19-7C40.34,55,32.82,50.13,26,48.13Z"/></g></g></svg>