<svg xmlns="http://www.w3.org/2000/svg" viewBox="0 0 95.18 94.95"><defs><style>.cls-1{fill:#231815;}</style></defs><g id="レイヤー_2" data-name="レイヤー 2"><g id="レイヤー_1-2" data-name="レイヤー 1"><polygon class="cls-1" points="34.63 41.38 8.57 41.38 0 16.04 4.42 14.54 11.92 36.71 34.63 36.71 34.63 41.38"/><path class="cls-1" d="M46.85,18.22A9.74,9.74,0,1,0,43.16,5,9.73,9.73,0,0,0,46.85,18.22Z"/><path class="cls-1" d="M55.31,41.71l7.5-5,7.35,10.9-12.87,1c-6.27.66-9.24,5.28-7.59,11.88l7.17,24.3a5.14,5.14,0,0,0,5.94,3.74,4.81,4.81,0,0,0,3.85-5.48L63.19,62.54H77.42c7.59.66,16.17-8,9.9-19.51-.16-.19-10.89-18.48-10.89-18.48-4-6.6-11.88-6.93-17.49-1l-6.6,7.26-1.72-7.25a4,4,0,0,0-4.72-3.14,4.18,4.18,0,0,0-3.17,4.77l1.69,12.55C45.3,43.54,51,44.68,55.31,41.71Z"/><rect class="cls-1" x="5.03" y="44.45" width="44.09" height="5.17" rx="1.85"/><path class="cls-1" d="M69,65.57H93.51a1.67,1.67,0,0,1,1.67,1.67v3.14a1.68,1.68,0,0,1-1.68,1.68H69a1.67,1.67,0,0,1-1.67-1.67V67.25A1.68,1.68,0,0,1,69,65.57Z"/><rect class="cls-1" x="78.89" y="73.39" width="4.69" height="21.56"/></g></g></svg>