<svg xmlns="http://www.w3.org/2000/svg" viewBox="0 0 36.07 95.57"><defs><style>.cls-1{fill:#221714;}</style></defs><g id="レイヤー_2" data-name="レイヤー 2"><g id="レイヤー_1-2" data-name="レイヤー 1"><path class="cls-1" d="M36.07,33.69l-1.4-18.86a3.67,3.67,0,0,0-7.33.22L27.08,34a4.5,4.5,0,1,0,9-.27Z"/><path class="cls-1" d="M17.07,14.74l.35-1.38a5.58,5.58,0,0,1,5.45-4.44A5.67,5.67,0,0,1,24,9a5.57,5.57,0,0,1,3.27,2,5.47,5.47,0,0,1,3.61-1.54H31a5.45,5.45,0,0,1,3.08.95c0-.23,0-.46,0-.7a9.74,9.74,0,1,0-19.48,0,9.64,9.64,0,0,0,1.51,5.18Z"/><path class="cls-1" d="M25.71,34.21h0L25.6,35c-.55,2.74-3.65,5-6.93,5h0a7.35,7.35,0,0,1-4.38-1.45L7.1,32.9l1-1.77,7.41,5.75c3.38,2.48,7.69.2,8.19-2.32l2.94-19.34a3.79,3.79,0,0,0-7.43-1.47L16,26.19l-1.76-.77,2.19-8.74c-4.72.93-9.32,3-11.76,7.09C-1.37,33.9,0,44.09.47,57.09.66,62.39,3,90.63,3,90.63a4.94,4.94,0,0,0,9.88,0l3.25-25.84.68,25.84a4.94,4.94,0,0,0,9.88,0l2.2-40.58,1.66-10.19A6.47,6.47,0,0,1,25.71,34.21Z"/></g></g></svg>