<svg xmlns="http://www.w3.org/2000/svg" viewBox="0 0 57.16 78.83"><defs><style>.cls-1{fill:#231815;}</style></defs><g id="レイヤー_2" data-name="レイヤー 2"><g id="レイヤー_1-2" data-name="レイヤー 1"><path class="cls-1" d="M41.94,57C41.49,57.7,33,73.5,31,76.56a4.46,4.46,0,0,1-6.23,1.59c-2.05-1.34-2.46-3.53-1.39-6.18l6.84-16.92H12.1A12.82,12.82,0,0,1,6.24,54a10.55,10.55,0,0,1-3.5-2.54A10.62,10.62,0,0,1,.38,47a13.89,13.89,0,0,1-.19-5.53,24.34,24.34,0,0,1,2-6.31c.5-1.07,1-2.15,1.65-3.22l.45-.79.43-.72.55-.93c.74-1.22,1.51-2.4,2.27-3.53,1.54-2.27,3.08-4.35,4.54-6.23C15,16,17.54,13.07,18.88,11.63a9.46,9.46,0,0,1,7.31-3.49c2.3-.06,6.05.88,9.14,6.06l3.49,5.23,4.23-9.9a3.79,3.79,0,0,1,7.1,2.67l-6,18.44,0,.11,0,0c0,.06,0,.12-.08.19s-.05.13-.09.2-.08.15-.12.23l-.09.17-.16.23-.1.14a2.43,2.43,0,0,1-.2.25l-.09.1a3,3,0,0,1-.25.25l-.07.07-.32.26,0,0h0l-.36.23,0,0a2.31,2.31,0,0,1-.35.18l-.06,0-.36.15-.06,0a4.62,4.62,0,0,1-2.53.14l-.14,0-.2-.06-.25-.08h0a.84.84,0,0,0-.14-.06l-.26-.12-.17-.09-.23-.13L37.1,33l-.19-.13-.2-.16-.15-.13-.2-.21-.12-.12L36,32,36,31.9l-5.8-7.22c-.09.35-9.46,13.72-11,16.36L35.91,43.9C41.8,44.83,46.58,49.18,41.94,57Z"/><path class="cls-1" d="M47.42,0a9.74,9.74,0,0,0-9.74,9.74,9.63,9.63,0,0,0,1.24,4.75l2.42-5.65a5.64,5.64,0,0,1,10.55,4l-2.08,6.36A9.73,9.73,0,0,0,47.42,0Z"/></g></g></svg>